<svg width="37" height="34" viewBox="0 0 37 34" fill="none" xmlns="http://www.w3.org/2000/svg">
<path d="M14.1299 14.7115C13.667 13.174 15.1037 11.7487 16.7143 12.0731L16.8712 12.11L34.723 16.9503C36.4543 17.42 36.9043 19.5483 35.4981 20.6158L32.0058 23.267L36.2921 27.3347C37.1574 28.1565 37.1578 29.4889 36.2921 30.3104L33.3081 33.141C32.4422 33.9627 31.0383 33.9627 30.1725 33.141L25.8876 29.0746L23.094 32.3888C21.969 33.7233 19.7249 33.2952 19.2302 31.6519L14.1299 14.7115ZM21.5893 29.9986L24.1119 27.0076C24.8859 26.0895 26.288 25.9608 27.2301 26.6792L27.4111 26.8345L31.7403 30.943L33.9746 28.8213L29.6454 24.7141C28.7111 23.8273 28.7973 22.3665 29.8292 21.5831L32.9808 19.1878L17.0321 14.8642L21.5893 29.9986ZM8.15248 20.5331C8.6888 20.0241 9.55813 20.0241 10.0944 20.5331C10.6303 21.0421 10.6306 21.8672 10.0944 22.3761L7.39072 24.9407C6.85439 25.4496 5.98506 25.4496 5.44876 24.9407C4.91259 24.4317 4.91248 23.6066 5.44876 23.0977L8.15248 20.5331ZM6.13676 13.3089C6.89511 13.3089 7.5099 13.8926 7.51008 14.6122C7.51008 15.332 6.89522 15.9155 6.13676 15.9155H2.31454C1.55608 15.9155 0.941223 15.332 0.941223 14.6122C0.941403 13.8926 1.55619 13.3089 2.31454 13.3089H6.13676ZM5.44876 4.28634C5.95139 3.80932 6.74671 3.77888 7.28611 4.19597L7.39072 4.28634L10.0944 6.85095L10.1883 6.95022C10.6281 7.46201 10.5969 8.21673 10.0944 8.6939C9.59164 9.17109 8.79516 9.20181 8.25575 8.78427L8.15248 8.6939L5.44876 6.12929L5.35488 6.03002C4.91486 5.51821 4.94618 4.76357 5.44876 4.28634ZM25.272 4.28634C25.8083 3.77738 26.6777 3.77736 27.214 4.28634C27.7502 4.79533 27.7503 5.62036 27.214 6.12929L24.5116 8.6939C23.9753 9.20286 23.1046 9.20288 22.5683 8.6939C22.0325 8.18496 22.0324 7.35978 22.5683 6.85095L25.272 4.28634ZM14.9587 4.93799V1.31063C14.9587 0.590949 15.5737 0.00751095 16.332 0.00732422C17.0905 0.00732405 17.7054 0.590833 17.7054 1.31063V4.93799C17.7054 5.65779 17.0905 6.24129 16.332 6.24129C15.5737 6.24111 14.9587 5.65767 14.9587 4.93799Z" fill="#2A2A2A"/>
</svg>
